<?xml version="1.0" encoding="utf-8"?>
<svg xmlns="http://www.w3.org/2000/svg" viewBox="32.9 174.743 71.888 63.576" width="71.888px" height="63.576px">
  <path d="M 57.971 224.292 L 57.971 203.374 L 57.971 194.861 L 75.109 194.861 L 75.109 188.769 L 63.16 188.769 L 63.16 174.743 L 57.971 174.743 L 57.971 189.041 L 57.971 194.861 L 32.9 194.861 L 32.9 203.773 L 50.377 203.773 L 50.377 224.292 L 57.971 224.292 Z M 79.717 238.319 L 79.717 224.02 L 79.717 218.2 L 104.788 218.2 L 104.788 209.287 L 87.31 209.287 L 87.31 188.769 L 79.717 188.769 L 79.717 209.686 L 79.717 218.2 L 62.579 218.2 L 62.579 224.293 L 74.526 224.293 L 74.526 238.319 L 79.717 238.319 Z" style="fill: rgb(255, 255, 255); fill-rule: evenodd; stroke-width: 1;" id="path8" transform="matrix(0.9999999999999999, 0, 0, 0.9999999999999999, 0, 0)"/>
</svg>